
<svg xmlns="http://www.w3.org/2000/svg" xmlns:xlink="http://www.w3.org/1999/xlink" version="1.1" id="Layer_1" x="0px" y="0px" viewBox="0 0 100 100" enable-background="new 0 0 100 100" xml:space="preserve" height="100px" width="100px">
<g>
	<path d="M53.1,45.3c-0.2-0.1-0.5-0.1-0.8-0.2L51.6,45l0.4,1.5L53.1,45.3z"/>
	<path d="M44.7,44.8c-0.2,0-0.3,0-0.5,0l-0.4,0.1l0.5,1L44.7,44.8z"/>
	<path d="M52.1,51l0.5-0.1c0.1,0,0.3-0.1,0.4-0.2l-0.4-0.9L52.1,51z"/>
	<path d="M38.2,38.2c1,0.5,1.8,0.8,2.5,0.8c0.7,0,1.2-0.3,1.5-0.8c0.6-0.9,0.6-2.2,0.4-2.5c-0.3-0.6-2.1-1.4-3.6-1.8   c-0.8,0.1-2.5,0.9-2.7,1.9C36,36.8,37.4,37.8,38.2,38.2z M39.3,35.2c0.7,0,1.3,0.6,1.3,1.3c0,0.7-0.6,1.3-1.3,1.3   c-0.7,0-1.3-0.6-1.3-1.3C38,35.8,38.6,35.2,39.3,35.2z"/>
	<path d="M40.1,46.7c-0.1,0.9,0.8,2,2.5,3.1c0.1,0.1,0.2,0.1,0.4,0.2l1.9-2c0.1-0.1,0.3-0.2,0.5-0.1c0.2,0,0.3,0.2,0.4,0.3l0.8,3.1   c0,0,0,0,0,0c0.9,0.2,1.7,0.3,2.6,0.3c0.7,0,1.3-0.1,1.9-0.2l1.1-2.9c0.1-0.2,0.2-0.3,0.4-0.3c0.2,0,0.4,0.1,0.5,0.3l0.9,2   c1-0.6,1.6-1.3,2-2.2c0.3-0.9,0.1-1.3-0.1-1.5c-0.3-0.5-0.9-0.8-1.6-1.1l-2.1,2.3C52,47.9,51.9,48,51.7,48c0,0-0.1,0-0.1,0   c-0.2,0-0.3-0.2-0.4-0.3l-0.7-2.7c-1.4-0.1-2.7-0.1-3.4-0.2l-0.5,0c-0.3,0-0.5,0-0.8,0l-1,3.2c-0.1,0.2-0.2,1-0.4,1c0,0,0,0,0,0   c-0.2,0-0.4-0.8-0.4-1l-1.2-2.9c-0.7,0.1-1.1,0.1-1.1,0.1C41,45.4,40.2,45.9,40.1,46.7z"/>
	<circle cx="39.3" cy="36.5" r="0.8"/>
	<path d="M43.9,50.4c0.1,0.1,0.3,0.1,0.4,0.2l1.1,0.2L45,49.2L43.9,50.4z"/>
	<path d="M57.5,38.9c1.4,0,2.5-1.1,2.5-2.5c0-1.4-1.1-2.5-2.5-2.5c-1.4,0-2.5,1.1-2.5,2.5C54.9,37.8,56.1,38.9,57.5,38.9z    M57.9,35.2c0.7,0,1.3,0.6,1.3,1.3c0,0.7-0.6,1.3-1.3,1.3c-0.7,0-1.3-0.6-1.3-1.3C56.6,35.8,57.2,35.2,57.9,35.2z"/>
	<path d="M77.7,31.6c-0.1-0.5-0.6-0.9-1.2-0.7L71.3,32c0.1-1.4,0-2.8-0.2-4.1l4.7-1.8c0.5-0.2,0.8-0.8,0.6-1.3   c-0.2-0.5-0.8-0.8-1.3-0.6L70.7,26c-0.5-1.7-1.3-3.2-2.6-4.4l3.7-1.9c0.5-0.2,0.7-0.8,0.4-1.3C72,17.9,71.5,17.7,71,18l-4.4,2.2   c-1.1-1-2.4-1.9-3.8-2.8l2.3-1.7c0.4-0.3,0.5-0.9,0.2-1.4c-0.3-0.4-0.9-0.5-1.4-0.2l-2.8,2.2c-2-1.2-4.1-2.4-6.2-3.4l1.6-3.1   c0.3-0.5,0.1-1.1-0.4-1.3c-0.5-0.3-1.1-0.1-1.3,0.4l-1.7,3.1c-2.7-1.2-5.2-2.2-7.2-2.7l0.9-2.9C47,5.7,46.7,5.2,46.2,5   c-0.5-0.2-1.1,0.1-1.2,0.7L44,8.8c-0.4-0.1-0.8-0.1-1.2-0.1c-2.8,0-4.4,0.4-5.3,0.7l-1.5-2.5c-0.3-0.5-0.9-0.6-1.3-0.3   c-0.5,0.3-0.6,0.9-0.3,1.3l1.5,2.4c-1.4,1.1-2.6,2.6-3.6,4.6l-3.7-1.1c-0.5-0.2-1.1,0.1-1.2,0.7c-0.2,0.5,0.1,1.1,0.7,1.2l3.5,1   c-0.7,1.9-1.2,4.1-1.5,6.5l-4.2-1.2c-0.5-0.2-1.1,0.1-1.2,0.7c-0.2,0.5,0.1,1.1,0.7,1.2l4.5,1.3c-0.1,1.4-0.1,2.8,0,4.2   c0,0.6,0,1.2,0,1.9l-4.9-0.6c-0.5-0.1-1,0.3-1.1,0.9c-0.1,0.5,0.3,1,0.9,1.1l5.1,0.6c0,1-0.1,2.1-0.1,3.3L26.2,36   c-0.5-0.1-1,0.2-1.1,0.8c-0.1,0.5,0.2,1,0.8,1.1l3.9,0.8c0,0.8-0.1,1.6-0.1,2.4c-0.1,1.6-0.2,3.3-0.3,5c-1.2-0.4-3.1-0.9-4.5-0.9   c-2.2,0-2.4,1.4-2.4,1.8c0,0.5-0.1,1.1-0.1,1.5c-0.1,1.5-0.3,3.3,1.3,3.5l0.6,0.1c1.3,0.2,3.6,0.6,4.9,0.6   c-0.2,9.8,0.3,19.3,3.7,24c0.5,0.7,1,1.4,1.6,2c0,0-0.1,0-0.1,0.1c-3.7,4.3-5.1,7.2-4.3,8.5c0.9,1.3,2.3,2.8,3.9,2.8   c0.5,0,1-0.2,1.4-0.5c1.2-0.9,3-3.7,4-5.4c4.2,3.9,9,6.9,13.3,6.9c1.7,0,3.2-0.5,4.6-1.4c2.1,3.6,3.9,5.2,5.7,5.2   c1.3,0,2.2-0.9,2.7-1.3c1.8-1.7,0.1-5.1-3.3-10c-0.1-0.2-0.3-0.3-0.4-0.3c3.6-8.3,5.1-21.5,6-30.3l0.1-1.3c0,0,0,0,0,0   c0.3,0.1,0.6,0.2,1,0.2c0.5,0,1.2-0.1,1.8-0.2c0.4-0.1,0.7-0.1,1-0.2c0.6-0.1,1.1-0.4,1.4-0.9c0.8-1.3-0.1-3.4-0.2-3.7   c-0.2-0.4-0.6-0.9-1.7-0.9c-0.7,0-1.6,0.2-2.4,0.4c0.2-1.1,0.4-2.3,0.7-3.4c0.6-3,1.2-6.1,1.5-9.1l5.8-1.3   C77.5,32.7,77.8,32.1,77.7,31.6z M26.2,50.8c0,0.1-0.1,0.2-0.2,0.2c0,0,0,0,0,0c-0.1,0-0.2-0.1-0.2-0.2l0.3-4.5   c0-0.1,0.1-0.2,0.3-0.2c0.1,0,0.2,0.2,0.2,0.3L26.2,50.8z M27.1,51.5c0,0.1-0.1,0.2-0.2,0.2c0,0,0,0,0,0c-0.1,0-0.2-0.1-0.2-0.3   l0.7-4.8c0-0.1,0.1-0.2,0.3-0.2c0.1,0,0.2,0.1,0.2,0.3L27.1,51.5z M49.7,36.2c0.3-2.5,3-4.5,4.8-5.1c0.9-0.3,2-0.5,3.2-0.5   c2.2,0,5.2,0.6,6.8,2.4c0.8,0.9,1.1,1.8,1,2.9c-0.4,3.3-4.2,6-8.4,6c0,0,0,0,0,0c-1.8,0-3.5-0.4-4.9-1.4   C49.8,39,49.5,37.4,49.7,36.2z M46.6,42.8l0.6,0c4.2,0.1,8.6,0.4,10.3,2.8c0.4,0.6,0.9,1.7,0.3,3.3c-1,2.9-4.3,4.6-8.6,4.6   c-2.7,0-5.4-0.7-7.6-2.1c-3.1-1.9-3.5-3.8-3.4-5c0.2-1.6,1.7-2.8,3-3.2C41.3,43.2,43.3,42.8,46.6,42.8z M34.4,35.4   c0.5-2,3.2-3.4,4.7-3.4c0.1,0,0.2,0,0.3,0c1,0.2,4.3,1.2,5.1,2.9c0.4,1,0.4,2.9-0.6,4.4C43.2,40.4,42,41,40.7,41   c-1,0-2.2-0.4-3.4-1.1C34.3,38.3,34.1,36.5,34.4,35.4z M35,89.1c0,0-0.1,0.1-0.2,0.1c-0.1,0-0.1,0-0.2-0.1L31,85.4   c-0.1-0.1-0.1-0.2,0-0.3c0.1-0.1,0.2-0.1,0.3,0l3.7,3.7C35.1,88.8,35.1,89,35,89.1z M36.4,87.5c0,0-0.1,0.1-0.2,0.1   c-0.1,0-0.1,0-0.2-0.1l-4-4.6c-0.1-0.1-0.1-0.3,0-0.3c0.1-0.1,0.3-0.1,0.3,0l4,4.6C36.5,87.3,36.5,87.4,36.4,87.5z M38,85.2   c0,0-0.1,0.1-0.2,0.1c-0.1,0-0.1,0-0.2-0.1l-4-4c-0.1-0.1-0.1-0.3,0-0.3c0.1-0.1,0.3-0.1,0.3,0l4,4C38.1,85,38.1,85.1,38,85.2z    M65.4,90.4c0.1,0.1,0,0.3-0.1,0.3l-3.8,1.6c0,0-0.1,0-0.1,0c-0.1,0-0.2-0.1-0.2-0.1c-0.1-0.1,0-0.3,0.1-0.3l3.8-1.6   C65.2,90.2,65.4,90.3,65.4,90.4z M64.5,88.3c0.1,0.1,0,0.3-0.1,0.3L60,90.7c0,0-0.1,0-0.1,0c-0.1,0-0.2-0.1-0.2-0.1   c-0.1-0.1,0-0.3,0.1-0.3l4.5-2.1C64.3,88.2,64.5,88.2,64.5,88.3z M63,86.5c0.1,0,0.3,0,0.3,0.1c0,0.1,0,0.3-0.1,0.3l-5.2,1.9   c0,0-0.1,0-0.1,0c-0.1,0-0.2-0.1-0.2-0.2c0-0.1,0-0.3,0.1-0.3L63,86.5z M63.7,70.5c-3.6,1.6-7.2,2.3-10.7,2.3   c-7.5,0-14.6-3-21.5-6.5c-0.1-0.8-0.2-1.5-0.2-2.3c12.8,6.6,22.4,9.3,32.8,4.2C64,68.9,63.9,69.7,63.7,70.5z M64.5,66.1   c-2.8,0.8-5.7,1.1-8.6,1.1c-9.3,0-18.8-3.4-24.7-6.3c0-0.7-0.1-1.5-0.1-2.2c7.4,3.9,22.1,9,33.7,5.3C64.7,64.7,64.6,65.4,64.5,66.1   z M65.4,59c-2.4,0.9-5.4,1.3-8.6,1.3c-9.5,0-20.8-3.3-25.8-5.7c0-0.7,0-1.4,0-2.1c2.9,1.5,9.3,3.7,16.1,4.9   c8.2,1.5,14.7,1.2,18.5-0.6C65.6,57.5,65.5,58.3,65.4,59z M70.9,47.3c0.1,0,0.3,0.1,0.3,0.2l0.6,3c0,0.1-0.1,0.3-0.2,0.3   c0,0,0,0,0,0c-0.1,0-0.2-0.1-0.2-0.2l-0.6-3C70.7,47.4,70.8,47.3,70.9,47.3z M69.5,47.3c0.1,0,0.3,0,0.3,0.2l0.7,3   c0,0.1,0,0.3-0.2,0.3c0,0,0,0-0.1,0c-0.1,0-0.2-0.1-0.2-0.2l-0.7-3C69.3,47.4,69.4,47.3,69.5,47.3z"/>
	<circle cx="57.9" cy="36.5" r="0.8"/>
	<path d="M53.2,39.1c1.1,0.8,2.4,1.2,3.8,1.2c3.1,0,6.2-2.1,6.5-4.4c0.1-0.6-0.1-1.1-0.5-1.5c-0.9-1-3.1-1.7-5.3-1.7   c-1,0-1.9,0.1-2.5,0.4c-1.3,0.5-3.3,2-3.5,3.5C51.5,37.4,52,38.3,53.2,39.1z M57.5,33.4c1.7,0,3,1.3,3,3c0,1.7-1.3,3-3,3   c-1.7,0-3-1.3-3-3C54.4,34.8,55.8,33.4,57.5,33.4z"/>
</g>
</svg>