<?xml version="1.0" encoding="utf-8"?>
<!-- Generator: Adobe Illustrator 15.0.0, SVG Export Plug-In  -->
<!DOCTYPE svg PUBLIC "-//W3C//DTD SVG 1.1//EN" "http://www.w3.org/Graphics/SVG/1.1/DTD/svg11.dtd" [
	<!ENTITY ns_flows "http://ns.adobe.com/Flows/1.0/">
]>
<svg version="1.1"
	 xmlns="http://www.w3.org/2000/svg" xmlns:xlink="http://www.w3.org/1999/xlink" xmlns:a="http://ns.adobe.com/AdobeSVGViewerExtensions/3.0/"
	 x="0px" y="0px" width="105px" height="102px" viewBox="-14.4 -1.2 105 102"
	 overflow="visible" enable-background="new -14.4 -1.2 105 102" xml:space="preserve">
<defs>
</defs>
<g id="mouse_1_">
	<g>
		<path fill-rule="evenodd" clip-rule="evenodd" d="M78.5,65.1c-1-3.5-2.1-6.9-2.8-10.7c-2.4-4-4.1-8.8-7-12.3
			c-2.6-3.9-5.6-7.5-9-10.7c-3.1-3.4-5.6-7.5-9-10.7c-3.3-3.2-7.2-5.9-12.3-7.3c-2.7-0.4-5.8-0.4-8.1-1.1c-4.5,0.7-8.6,1.7-11.2,4.2
			c-2.7-2.9-5.6-5.6-8.1-8.7c-1-1.5-2.7-2.7-4.2-4.2C5.1,2.1,3.9-0.2,1.4,0C0.7,0.4,0.1,1,0,2c-0.1,2,1.2,2.6,1.7,3.9
			c1.1,0.9,1.4,2.6,2.5,3.4c0.5,1.3,1.5,2.2,2.2,3.4C7.3,13.8,8.3,14.7,9,16c1,0.6,1.7,1.7,2.5,2.5c0.9,0.9,2.1,1.5,2.5,2.8
			c-1-0.7-2.3,0.2-3.1,0.6c-3.2,3.9-5.3,8.9-4.8,16.5C7.1,43.4,7.8,48.6,9.3,53c1.1,4.9,3.7,8.3,5.3,12.6c1.3,1.6,2,3.8,3.4,5.3
			c0.4,1.1,1.1,1.9,1.7,2.8c0.4,1.1,1.4,1.6,1.7,2.8c1.2,1.8,2.7,3.3,3.6,5.3c0.9,0.6,1.4,1.6,2,2.5c0.8,0.7,1.5,1.5,2,2.5
			c3.8,2.5,6.6,5.9,10.1,8.7c0.9,0.2,1.7,0.6,2.2,1.1c2.5,0.7,5.8,0.6,8.4,1.1c0.4-0.5,1.4-0.3,1.7-0.8c0.9,0,1.2-0.6,2.2-0.6
			c0.4-0.5,1.2-0.4,1.7-0.8c0.5-0.5,1-0.9,2-0.8c1.2-0.4,3.1-0.3,4.5-0.6c0.6-0.4,1.2-0.8,2.2-0.8c0.4-0.6,0.9-0.9,1.7-1.1
			c1.2-1.2,2.6-2.2,3.6-3.6c1.2-1.2,3-1.8,4.2-3.1C76.9,80.5,79.1,74.1,78.5,65.1z M23,61.4c-0.4-0.4-0.7-1-1.4-1.1
			c0.1-0.7,1.2-0.3,1.4-0.8C23.6,59.7,23.3,61.2,23,61.4z M18.2,56.7c-1.2,0-1.2-1.3-1.7-2c-0.4-0.8-1.1-1.3-1.1-2.5
			c-0.5-0.7-0.8-1.6-0.8-2.8c-0.7-0.5-0.2-2-0.8-2.5c-0.6-4.1-1.7-7.6-1.7-12.3c0-0.8,0.4-1,0.8-0.6c-0.2-0.9-0.8-1.4-0.6-2.8
			c0.9-4.4,5.1-5.6,8.1-7.9h1.4c0.3,0.5,0.7,1,1.1,1.4c0.1,0.9-0.4,1.1-0.6,1.7c-0.1,1,1.1,0.7,0.8,2c-2.7,2.4-1.2,8.8,1.1,10.4
			c1.4,0.3,3,0.5,4.5,0.8c0.9,0,1.6-0.1,2-0.6c1.4,1.4,2.5,3.1,3.9,4.5c-0.2,1.1-1.5,1.1-2,2c-0.6,0.6-1.6,0.9-2,1.7
			c-1.7,0.8-2.5,2.4-4.2,3.1C24.3,52.8,21.5,55,18.2,56.7z M70.1,73.2c-1,2.9-2.9,5-3.9,7.9c-1.8,1.6-3.8,2.9-5.6,4.5
			c-1.4-0.2-2,0.5-3.4,0.3c-1.2,0.4,0-1.5-0.8-1.4c0-0.7-0.4-0.9-0.8-1.1c-2-0.1-1.7,2-2.2,3.4h-1.7c-0.9-0.6-0.7-2.3-1.1-3.4
			c-0.2-1.2-0.4-2.6-1.4-3.1c-2,0.4-1.3,3.5-2,5.3c-0.7-0.1-1.1-0.4-2-0.3c-0.9-2,0-5.8-2-6.7c-1.3,0-1.1,1.4-1.7,2
			c-0.2,1-0.1,2.3-0.6,3.1c-1.5-0.1-0.7-2.5-1.4-3.4c0-1.5-0.3-2.7-0.6-3.9c-0.5-2.5-0.4-5.6-2-7c-1.9,0.5-1.6,3.2-2.2,5.1v3.9
			c0.2,0.9-0.6,0.4-0.6,0c-0.3-0.1-0.6-0.4-0.6-0.8c-0.7-0.2-0.9-1-1.4-1.4c0-0.3-0.1-0.5-0.3-0.6c0-1-0.3-1.8-0.6-2.5
			c0.2-1.5-0.3-2.3-0.3-3.6c-0.7-0.5,0.3-2.7-0.8-2.8c-1.7,0.4-1.1,3-1.4,4.8c-1.5-0.5-0.8-3.1-1.4-4.5v-5.6
			c-0.3-1.3-0.9-2.2-1.4-3.4c2.6-1.4,4.6-3.2,7-4.8c2-1.9,4.5-3.3,6.4-5.3c1.5-0.4,1.8-2.1,3.4-2.5c0.8-1.2,2-1.9,2.8-3.1
			c2.1-1.7,3.6-4,5-6.5c0.2-1.8,0.9-5-0.8-5.6c-2.4-0.3-2.8,1.5-3.4,3.1c-1.4,1.2-2.7,2.5-3.9,3.9c-1.9,0.6-2.3,2.7-4.2,3.4
			c-1.1-1.4-2.5-2.5-3.4-4.2c0.2-0.9,0.9-1.4,1.1-2.2c0.5-3.8-0.6-6.9-2.8-8.7c-1-0.3-2.1-0.4-3.1-0.6c-1.1,0.1-2.7-0.3-3.1,0.6
			c-1-0.3-1-1.6-2-2c0.4-1.1,0.5-0.8,0.3-2.2c1-0.9,2.5-1.4,3.9-2c1.3-0.5,2.7-1.3,4.2-1.4c1.3-0.1,2.5,0.4,3.9,0.3
			c1.9,1.4,4.4,2.4,6.2,3.9c1.9,1.4,3.5,3,5.3,4.5v1.7c2.3,2.8,4.4,5.9,7,8.4c0.7,1.9,2.8,2.5,3.4,4.5c1.2,1.3,2.1,2.9,3.1,4.5
			c4.3,5.9,7,13.4,11.2,19.4C72.6,67.6,71.7,70.8,70.1,73.2z"/>
	</g>
</g>
</svg>
